<svg width="36" height="42" viewBox="0 0 36 42" fill="none" xmlns="http://www.w3.org/2000/svg">
<path d="M25.15 42H18C17.5183 42 17.1146 41.8371 16.7887 41.5112C16.4629 41.1854 16.3 40.7817 16.3 40.3V27.8C16.3 27.3183 16.4629 26.9146 16.7887 26.5888C17.1146 26.2629 17.5183 26.1 18 26.1H20.05V19.45H3C2.175 19.45 1.46875 19.1563 0.88125 18.5688C0.29375 17.9813 0 17.275 0 16.45V6.8C0 5.975 0.29375 5.26875 0.88125 4.68125C1.46875 4.09375 2.175 3.8 3 3.8H7.15V1.7C7.15 1.21833 7.31292 0.814585 7.63875 0.488751C7.96458 0.162918 8.36833 0 8.85 0H34.3C34.7817 0 35.1854 0.162918 35.5112 0.488751C35.8371 0.814585 36 1.21833 36 1.7V9.3C36 9.78167 35.8371 10.1854 35.5112 10.5112C35.1854 10.8371 34.7817 11 34.3 11H8.85C8.36833 11 7.96458 10.8371 7.63875 10.5112C7.31292 10.1854 7.15 9.78167 7.15 9.3V6.8H3V16.45H20.05C20.875 16.45 21.5813 16.7438 22.1688 17.3313C22.7563 17.9188 23.05 18.625 23.05 19.45V26.1H25.15C25.6317 26.1 26.0354 26.2629 26.3612 26.5888C26.6871 26.9146 26.85 27.3183 26.85 27.8V40.3C26.85 40.7817 26.6871 41.1854 26.3612 41.5112C26.0354 41.8371 25.6317 42 25.15 42ZM19.3 39H23.85V29.1H19.3V39ZM10.15 8H33V3H10.15V8Z" fill="#685C79"/>
</svg>
