<svg width="36" height="42" viewBox="0 0 36 42" fill="none" xmlns="http://www.w3.org/2000/svg">
<path d="M6.3 33.6583C5.78571 33.6583 5.33571 33.4833 4.95 33.1333C4.56429 32.7833 4.37143 32.375 4.37143 31.9083C4.37143 31.4417 4.56429 31.0333 4.95 30.6833C5.33571 30.3333 5.78571 30.1583 6.3 30.1583C6.81429 30.1583 7.26429 30.3333 7.65 30.6833C8.03571 31.0333 8.22857 31.4417 8.22857 31.9083C8.22857 32.375 8.03571 32.7833 7.65 33.1333C7.26429 33.4833 6.81429 33.6583 6.3 33.6583ZM18 33.6583C17.4857 33.6583 17.0357 33.4833 16.65 33.1333C16.2643 32.7833 16.0714 32.375 16.0714 31.9083C16.0714 31.4417 16.2643 31.0333 16.65 30.6833C17.0357 30.3333 17.4857 30.1583 18 30.1583C18.5143 30.1583 18.9643 30.3333 19.35 30.6833C19.7357 31.0333 19.9286 31.4417 19.9286 31.9083C19.9286 32.375 19.7357 32.7833 19.35 33.1333C18.9643 33.4833 18.5143 33.6583 18 33.6583ZM29.7 33.6583C29.1857 33.6583 28.7357 33.4833 28.35 33.1333C27.9643 32.7833 27.7714 32.375 27.7714 31.9083C27.7714 31.4417 27.9643 31.0333 28.35 30.6833C28.7357 30.3333 29.1857 30.1583 29.7 30.1583C30.2143 30.1583 30.6643 30.3333 31.05 30.6833C31.4357 31.0333 31.6286 31.4417 31.6286 31.9083C31.6286 32.375 31.4357 32.7833 31.05 33.1333C30.6643 33.4833 30.2143 33.6583 29.7 33.6583ZM0 24.9083V21.4083C0 17.2472 1.55357 13.6111 4.66071 10.5C7.76786 7.38889 11.5714 5.61944 16.0714 5.19167V0H19.9286V5.19167C24.4286 5.61944 28.2321 7.38889 31.3393 10.5C34.4464 13.6111 36 17.2472 36 21.4083V24.9083H0ZM3.85714 21.4083H32.1429C32.1429 17.8694 30.7653 14.8458 28.0101 12.3375C25.2549 9.82917 21.9227 8.575 18.0136 8.575C14.1045 8.575 10.7679 9.82625 8.00357 12.3287C5.23929 14.8312 3.85714 17.8578 3.85714 21.4083ZM6.3 42C5.78571 42 5.33571 41.825 4.95 41.475C4.56429 41.125 4.37143 40.7167 4.37143 40.25C4.37143 39.7833 4.56429 39.375 4.95 39.025C5.33571 38.675 5.78571 38.5 6.3 38.5C6.81429 38.5 7.26429 38.675 7.65 39.025C8.03571 39.375 8.22857 39.7833 8.22857 40.25C8.22857 40.7167 8.03571 41.125 7.65 41.475C7.26429 41.825 6.81429 42 6.3 42ZM18 42C17.4857 42 17.0357 41.825 16.65 41.475C16.2643 41.125 16.0714 40.7167 16.0714 40.25C16.0714 39.7833 16.2643 39.375 16.65 39.025C17.0357 38.675 17.4857 38.5 18 38.5C18.5143 38.5 18.9643 38.675 19.35 39.025C19.7357 39.375 19.9286 39.7833 19.9286 40.25C19.9286 40.7167 19.7357 41.125 19.35 41.475C18.9643 41.825 18.5143 42 18 42ZM29.7 42C29.1857 42 28.7357 41.825 28.35 41.475C27.9643 41.125 27.7714 40.7167 27.7714 40.25C27.7714 39.7833 27.9643 39.375 28.35 39.025C28.7357 38.675 29.1857 38.5 29.7 38.5C30.2143 38.5 30.6643 38.675 31.05 39.025C31.4357 39.375 31.6286 39.7833 31.6286 40.25C31.6286 40.7167 31.4357 41.125 31.05 41.475C30.6643 41.825 30.2143 42 29.7 42Z" fill="#685C79"/>
</svg>
