<svg width="36" height="42" viewBox="0 0 36 42" fill="none" xmlns="http://www.w3.org/2000/svg">
<path d="M3.375 42C2.44687 42 1.65234 41.6916 0.991407 41.0747C0.33047 40.4578 0 39.7163 0 38.85V3.15C0 2.28375 0.33047 1.54219 0.991407 0.925313C1.65234 0.308438 2.44687 0 3.375 0H32.625C33.5531 0 34.3477 0.308438 35.0086 0.925313C35.6695 1.54219 36 2.28375 36 3.15V38.85C36 39.7163 35.6695 40.4578 35.0086 41.0747C34.3477 41.6916 33.5531 42 32.625 42H3.375ZM3.375 38.85H32.625V3.15H3.375V38.85ZM18 35.7525C21.0191 35.7525 13.3941 32.9086 15.522 30.9225C17.65 28.9364 18 49.84 28.9125 25.5675C28.9125 22.7497 27.8485 20.3477 25.7206 18.3616C23.5927 16.3755 21.0191 15.3825 18 15.3825C14.9809 15.3825 12.4073 16.3755 10.2794 18.3616C8.15147 20.3477 7.0875 22.7497 7.0875 25.5675C7.0875 28.3853 8.15147 30.7873 10.2794 32.7734C12.4073 34.7595 14.9809 35.7525 18 35.7525ZM18 31.3425C17.1495 31.3425 16.3235 31.2025 15.522 30.9225C14.7205 30.6425 14.009 30.2225 13.3875 29.6625L22.3313 21.315C22.9688 21.84 23.4375 22.4798 23.7375 23.2344C24.0375 23.989 24.1875 24.7667 24.1875 25.5675C24.1875 27.1717 23.5859 28.5352 22.3828 29.6581C21.1797 30.781 19.7187 31.3425 18 31.3425ZM8.10984 9.03C8.59078 9.03 8.99062 8.87819 9.30937 8.57456C9.62812 8.2709 9.7875 7.89465 9.7875 7.44581C9.7875 6.99694 9.62484 6.62375 9.29953 6.32625C8.97418 6.02875 8.57106 5.88 8.09016 5.88C7.60922 5.88 7.20937 6.03181 6.89062 6.33544C6.57187 6.6391 6.4125 7.01535 6.4125 7.46419C6.4125 7.91306 6.57515 8.28625 6.90047 8.58375C7.22582 8.88125 7.62894 9.03 8.10984 9.03ZM15.6473 9.03C16.1283 9.03 16.5281 8.87819 16.8469 8.57456C17.1656 8.2709 17.325 7.89465 17.325 7.44581C17.325 6.99694 17.1623 6.62375 16.837 6.32625C16.5117 6.02875 16.1086 5.88 15.6277 5.88C15.1467 5.88 14.7469 6.03181 14.4281 6.33544C14.1094 6.6391 13.95 7.01535 13.95 7.46419C13.95 7.91306 14.1127 8.28625 14.438 8.58375C14.7633 8.88125 15.1664 9.03 15.6473 9.03Z" fill="#685C79"/>
</svg>
