<svg width="48" height="34" viewBox="0 0 48 34" fill="none" xmlns="http://www.w3.org/2000/svg">
<path d="M11.3455 26.5625C13.2933 26.5625 15.1894 26.7839 17.0336 27.2266C18.8779 27.6693 20.6909 28.3333 22.4727 29.2188V6.53438C20.8364 5.47188 19.0615 4.64844 17.1481 4.06406C15.2347 3.47969 13.3005 3.1875 11.3455 3.1875C9.96364 3.1875 8.60909 3.35573 7.28182 3.69219C5.95455 4.02865 4.61818 4.44479 3.27273 4.94063V27.9969C4.4 27.501 5.68182 27.138 7.11818 26.9078C8.55455 26.6776 9.96364 26.5625 11.3455 26.5625ZM25.7455 29.2188C27.5636 28.3333 29.3455 27.6693 31.0909 27.2266C32.8364 26.7839 34.6909 26.5625 36.6545 26.5625C38.0364 26.5625 39.4636 26.6688 40.9364 26.8813C42.4091 27.0938 43.6727 27.3771 44.7273 27.7313V4.94063C43.4909 4.33854 42.1851 3.89583 40.8097 3.6125C39.4343 3.32917 38.0493 3.1875 36.6545 3.1875C34.6909 3.1875 32.7909 3.47969 30.9545 4.06406C29.1182 4.64844 27.3818 5.47188 25.7455 6.53438V29.2188ZM24.1091 34C22.2545 32.6542 20.2364 31.6182 18.0545 30.8922C15.8727 30.1661 13.6364 29.8031 11.3455 29.8031C10.0168 29.8031 8.71196 29.9625 7.43084 30.2812C6.14967 30.6 4.87273 30.9896 3.6 31.45C2.76 31.8396 1.95 31.7865 1.17 31.2906C0.39 30.7948 0 30.0865 0 29.1656V4.56875C0 4.0375 0.127273 3.55052 0.381818 3.10781C0.636364 2.6651 1.01818 2.31979 1.52727 2.07188C3.05455 1.36354 4.64355 0.841146 6.29427 0.504687C7.94496 0.168229 9.62869 0 11.3455 0C13.6364 0 15.8636 0.301042 18.0273 0.903125C20.1909 1.50521 22.2182 2.42604 24.1091 3.66563C25.9636 2.42604 27.9545 1.50521 30.0818 0.903125C32.2091 0.301042 34.4 0 36.6545 0C38.3588 0 40.0304 0.168229 41.6691 0.504687C43.3079 0.841146 44.8909 1.36354 46.4182 2.07188C46.9273 2.31979 47.3182 2.6651 47.5909 3.10781C47.8636 3.55052 48 4.0375 48 4.56875V29.1656C48 30.1535 47.5909 30.9052 46.7727 31.4206C45.9545 31.936 45.1455 31.9458 44.3455 31.45C43.1091 30.9542 41.8503 30.5557 40.5692 30.2547C39.288 29.9536 37.9832 29.8031 36.6545 29.8031C34.3636 29.8031 32.1636 30.175 30.0545 30.9188C27.9455 31.6625 25.9636 32.6896 24.1091 34Z" fill="#685C79"/>
</svg>
