<svg width="104" height="92" viewBox="0 0 104 92" fill="none" xmlns="http://www.w3.org/2000/svg">
<path d="M18.46 71.875C23.92 68.5017 29.3367 65.9142 34.71 64.1125C40.0833 62.3108 45.8467 61.41 52 61.41C58.1533 61.41 63.9383 62.3108 69.355 64.1125C74.7717 65.9142 80.21 68.5017 85.67 71.875C89.4833 67.735 92.1917 63.5567 93.795 59.34C95.3983 55.1233 96.2 50.6767 96.2 46C96.2 34.8833 91.975 25.5875 83.525 18.1125C75.075 10.6375 64.5667 6.9 52 6.9C39.4333 6.9 28.925 10.6375 20.475 18.1125C12.025 25.5875 7.8 34.8833 7.8 46C7.8 50.6767 8.62333 55.1233 10.27 59.34C11.9167 63.5567 14.6467 67.735 18.46 71.875ZM51.9758 49.45C46.9653 49.45 42.7483 47.9287 39.325 44.8861C35.9017 41.8435 34.19 38.106 34.19 33.6736C34.19 29.2412 35.9097 25.5108 39.3492 22.4825C42.7886 19.4542 47.0136 17.94 52.0242 17.94C57.0347 17.94 61.2517 19.4613 64.675 22.5039C68.0983 25.5465 69.81 29.284 69.81 33.7164C69.81 38.1488 68.0903 41.8792 64.6508 44.9075C61.2114 47.9358 56.9864 49.45 51.9758 49.45ZM52.0608 92C44.9136 92 38.1767 90.7925 31.85 88.3775C25.5233 85.9625 19.9983 82.6658 15.275 78.4875C10.5517 74.3092 6.825 69.4306 4.095 63.8519C1.365 58.2732 0 52.3124 0 45.9694C0 39.6265 1.365 33.6758 4.095 28.1175C6.825 22.5592 10.5517 17.6908 15.275 13.5125C19.9983 9.33417 25.5132 6.0375 31.8196 3.6225C38.126 1.2075 44.8643 0 52.0346 0C59.2049 0 65.9317 1.2075 72.215 3.6225C78.4983 6.0375 84.0017 9.33417 88.725 13.5125C93.4483 17.6908 97.175 22.5604 99.905 28.1212C102.635 33.682 104 39.6236 104 45.9462C104 52.2687 102.635 58.2283 99.905 63.825C97.175 69.4217 93.4483 74.3092 88.725 78.4875C84.0017 82.6658 78.4969 85.9625 72.2108 88.3775C65.9247 90.7925 59.2081 92 52.0608 92ZM52 85.1C56.7667 85.1 61.425 84.4867 65.975 83.26C70.525 82.0333 75.01 79.8867 79.43 76.82C75.01 74.06 70.5033 71.9517 65.91 70.495C61.3167 69.0383 56.68 68.31 52 68.31C47.32 68.31 42.6833 69.0383 38.09 70.495C33.4967 71.9517 28.99 74.06 24.57 76.82C28.99 79.8867 33.475 82.0333 38.025 83.26C42.575 84.4867 47.2333 85.1 52 85.1ZM52 42.55C54.9467 42.55 57.3517 41.7258 59.215 40.0775C61.0783 38.4292 62.01 36.3017 62.01 33.695C62.01 31.0883 61.0783 28.9608 59.215 27.3125C57.3517 25.6642 54.9467 24.84 52 24.84C49.0533 24.84 46.6483 25.6642 44.785 27.3125C42.9217 28.9608 41.99 31.0883 41.99 33.695C41.99 36.3017 42.9217 38.4292 44.785 40.0775C46.6483 41.7258 49.0533 42.55 52 42.55Z" fill="#685C79"/>
</svg>
