<svg width="35" height="41" viewBox="0 0 35 41" fill="none" xmlns="http://www.w3.org/2000/svg">
<path d="M17.5 19.8068C15.0938 19.8068 13.125 18.8824 11.5938 17.0338C10.0625 15.1852 9.29688 12.8084 9.29688 9.90338C9.29688 6.99839 10.0625 4.62158 11.5938 2.77295C13.125 0.924316 15.0938 0 17.5 0C19.9062 0 21.875 0.924316 23.4062 2.77295C24.9375 4.62158 25.7031 6.99839 25.7031 9.90338C25.7031 12.8084 24.9375 15.1852 23.4062 17.0338C21.875 18.8824 19.9062 19.8068 17.5 19.8068ZM0 41V34.7939C0 33.1213 0.346354 31.6908 1.03906 30.5024C1.73177 29.314 2.625 28.4117 3.71875 27.7955C6.16146 26.475 8.50391 25.4847 10.7461 24.8245C12.9883 24.1643 15.2396 23.8341 17.5 23.8341C19.7604 23.8341 22.0026 24.1753 24.2266 24.8575C26.4505 25.5397 28.7824 26.5233 31.2222 27.8083C32.3634 28.4301 33.2783 29.3316 33.967 30.513C34.6557 31.6943 35 33.1213 35 34.7939V41H0ZM3.28125 37.0386H31.7188V34.7939C31.7188 34.0896 31.5456 33.4184 31.1992 32.7802C30.8529 32.142 30.4245 31.6688 29.9141 31.3607C27.5807 29.9962 25.4479 29.0609 23.5156 28.5548C21.5833 28.0486 19.5781 27.7955 17.5 27.7955C15.4219 27.7955 13.3984 28.0486 11.4297 28.5548C9.46094 29.0609 7.32812 29.9962 5.03125 31.3607C4.52083 31.6688 4.10156 32.142 3.77344 32.7802C3.44531 33.4184 3.28125 34.0896 3.28125 34.7939V37.0386ZM17.5 15.8454C18.9219 15.8454 20.0977 15.2842 21.0273 14.1618C21.957 13.0395 22.4219 11.62 22.4219 9.90338C22.4219 8.1868 21.957 6.76731 21.0273 5.64493C20.0977 4.52254 18.9219 3.96135 17.5 3.96135C16.0781 3.96135 14.9023 4.52254 13.9727 5.64493C13.043 6.76731 12.5781 8.1868 12.5781 9.90338C12.5781 11.62 13.043 13.0395 13.9727 14.1618C14.9023 15.2842 16.0781 15.8454 17.5 15.8454Z" fill="#685C79"/>
</svg>
