<svg width="31" height="30" viewBox="0 0 31 30" fill="none" xmlns="http://www.w3.org/2000/svg">
<path d="M15.5 26.25V24.0312L22.475 17.2812L24.7677 19.5L17.7927 26.25H15.5ZM3.875 19.6875V17.8125H13.5625V19.6875H3.875ZM26.1563 18.1562L23.8635 15.9375L24.8 15.0312C24.9722 14.8646 25.1983 14.7812 25.4781 14.7812C25.758 14.7812 25.984 14.8646 26.1563 15.0312L27.0927 15.9375C27.2649 16.1042 27.351 16.3229 27.351 16.5938C27.351 16.8646 27.2649 17.0833 27.0927 17.25L26.1563 18.1562ZM3.875 14.5312V12.6562H19.0521V14.5312H3.875ZM3.875 9.375V7.5H19.0521V9.375H3.875Z" fill="#685C79"/>
</svg>
