<svg width="25" height="25" viewBox="0 0 25 25" fill="none" xmlns="http://www.w3.org/2000/svg">
<g clip-path="url(#clip0_140_2)">
<path d="M19.1145 25L16.1979 22.0833V20.4687L7.8385 12.1094C7.73433 12.1441 7.62583 12.1701 7.51298 12.1875C7.40013 12.2049 7.30031 12.2135 7.2135 12.2135V10.8333C8.0642 10.7986 9.02774 10.5469 10.1041 10.0781C11.1805 9.60937 11.9878 9.07985 12.526 8.48957L14.0364 6.84895C14.2448 6.62325 14.4835 6.44096 14.7526 6.30207C15.0217 6.16318 15.3038 6.09374 15.5989 6.09374C16.1545 6.09374 16.6319 6.29339 17.0312 6.6927C17.4305 7.092 17.6302 7.56943 17.6302 8.12499V14.5833C17.6302 15.1042 17.513 15.6337 17.2786 16.1719C17.0442 16.7101 16.7534 17.0746 16.4062 17.2656L13.4375 14.2969V9.76562C12.9166 10.217 12.335 10.6163 11.6927 10.9635C11.0503 11.3108 10.4427 11.5885 9.86975 11.7969L17.3698 19.2969H18.9843L21.901 22.2135L19.1145 25ZM5.3385 21.25L4.16663 20.0781L9.53121 14.7656L12.2656 17.5H9.11454L5.3385 21.25ZM15.7291 4.84374C15.2083 4.84374 14.7612 4.65711 14.388 4.28384C14.0147 3.91058 13.8281 3.46353 13.8281 2.9427C13.8281 2.42186 14.0147 1.97482 14.388 1.60155C14.7612 1.22829 15.2083 1.04166 15.7291 1.04166C16.25 1.04166 16.697 1.22829 17.0703 1.60155C17.4435 1.97482 17.6302 2.42186 17.6302 2.9427C17.6302 3.46353 17.4435 3.91058 17.0703 4.28384C16.697 4.65711 16.25 4.84374 15.7291 4.84374Z" fill="#685C79"/>
</g>
<defs>
<clipPath id="clip0_140_2">
<rect width="25" height="25" fill="white"/>
</clipPath>
</defs>
</svg>
