<svg width="17" height="22" viewBox="0 0 17 22" fill="none" xmlns="http://www.w3.org/2000/svg">
<path d="M1.59375 22C1.15547 22 0.780273 21.8461 0.468164 21.5384C0.156055 21.2307 0 20.8607 0 20.4286V9.0619C0 8.62976 0.156055 8.25982 0.468164 7.95208C0.780273 7.64435 1.15547 7.49048 1.59375 7.49048H3.45312V4.97619C3.45312 3.59944 3.94547 2.42589 4.93016 1.45554C5.91485 0.485179 7.10573 0 8.50282 0C9.8999 0 11.0898 0.485179 12.0727 1.45554C13.0555 2.42589 13.5469 3.59944 13.5469 4.97619V7.49048H15.4062C15.8445 7.49048 16.2197 7.64435 16.5318 7.95208C16.8439 8.25982 17 8.62976 17 9.0619V20.4286C17 20.8607 16.8439 21.2307 16.5318 21.5384C16.2197 21.8461 15.8445 22 15.4062 22H1.59375ZM1.59375 20.4286H15.4062V9.0619H1.59375V20.4286ZM8.50446 16.7619C9.06815 16.7619 9.54922 16.5696 9.94766 16.1849C10.3461 15.8002 10.5453 15.3378 10.5453 14.7976C10.5453 14.2738 10.3446 13.798 9.94319 13.3702C9.54178 12.9425 9.05923 12.7286 8.49554 12.7286C7.93185 12.7286 7.45078 12.9425 7.05234 13.3702C6.65391 13.798 6.45469 14.2782 6.45469 14.8107C6.45469 15.3433 6.65539 15.8016 7.05681 16.1857C7.45822 16.5698 7.94077 16.7619 8.50446 16.7619ZM5.04688 7.49048H11.9531V4.97619C11.9531 4.03042 11.6177 3.22652 10.9469 2.56449C10.276 1.90245 9.46146 1.57143 8.50313 1.57143C7.5448 1.57143 6.72917 1.90245 6.05625 2.56449C5.38333 3.22652 5.04688 4.03042 5.04688 4.97619V7.49048Z" fill="#685C79"/>
</svg>
