<svg width="29" height="24" viewBox="0 0 29 24" fill="none" xmlns="http://www.w3.org/2000/svg">
<path d="M6.85455 18.75C8.03137 18.75 9.17691 18.9062 10.2911 19.2188C11.4054 19.5312 12.5008 20 13.5773 20.625V4.6125C12.5886 3.8625 11.5163 3.28125 10.3603 2.86875C9.20428 2.45625 8.0357 2.25 6.85455 2.25C6.0197 2.25 5.20133 2.36875 4.39943 2.60625C3.59754 2.84375 2.79015 3.1375 1.97727 3.4875V19.7625C2.65833 19.4125 3.43277 19.1562 4.30057 18.9938C5.16837 18.8313 6.0197 18.75 6.85455 18.75ZM15.5545 20.625C16.653 20 17.7295 19.5312 18.7841 19.2188C19.8386 18.9062 20.9591 18.75 22.1455 18.75C22.9803 18.75 23.8426 18.825 24.7324 18.975C25.6222 19.125 26.3856 19.325 27.0227 19.575V3.4875C26.2758 3.0625 25.4868 2.75 24.6559 2.55C23.8249 2.35 22.9881 2.25 22.1455 2.25C20.9591 2.25 19.8112 2.45625 18.7017 2.86875C17.5922 3.28125 16.5432 3.8625 15.5545 4.6125V20.625ZM14.5659 24C13.4455 23.05 12.2261 22.3188 10.908 21.8063C9.58977 21.2938 8.23864 21.0375 6.85455 21.0375C6.05184 21.0375 5.26348 21.15 4.48946 21.375C3.71543 21.6 2.94394 21.875 2.175 22.2C1.6675 22.475 1.17813 22.4375 0.706875 22.0875C0.235625 21.7375 0 21.2375 0 20.5875V3.225C0 2.85 0.0768939 2.50625 0.230682 2.19375C0.38447 1.88125 0.615152 1.6375 0.922727 1.4625C1.84545 0.9625 2.80548 0.59375 3.80279 0.35625C4.80008 0.11875 5.81733 0 6.85455 0C8.23864 0 9.58428 0.2125 10.8915 0.6375C12.1987 1.0625 13.4235 1.7125 14.5659 2.5875C15.6864 1.7125 16.8892 1.0625 18.1744 0.6375C19.4597 0.2125 20.7833 0 22.1455 0C23.1751 0 24.185 0.11875 25.1751 0.35625C26.1652 0.59375 27.1216 0.9625 28.0443 1.4625C28.3519 1.6375 28.5881 1.88125 28.7528 2.19375C28.9176 2.50625 29 2.85 29 3.225V20.5875C29 21.2849 28.7528 21.8154 28.2585 22.1793C27.7642 22.5431 27.2754 22.55 26.792 22.2C26.0451 21.85 25.2846 21.5688 24.5105 21.3563C23.7365 21.1438 22.9482 21.0375 22.1455 21.0375C20.7614 21.0375 19.4322 21.3 18.158 21.825C16.8837 22.35 15.6864 23.075 14.5659 24Z" fill="#685C79"/>
</svg>
