<svg width="36" height="42" viewBox="0 0 36 42" fill="none" xmlns="http://www.w3.org/2000/svg">
<path d="M8.55 42C7.5735 42 6.71908 41.7662 5.98674 41.2986C5.25435 40.8311 4.82306 40.2376 4.69286 39.5182L0 13.3636H36L31.3071 39.5182C31.1769 40.2376 30.7456 40.831 30.0133 41.2986C29.2809 41.7662 28.4265 42 27.45 42H8.55ZM8.55 39.1364H27.5143L31.5643 16.2273H4.43571L8.55 39.1364ZM18.0076 28.1591C19.974 28.1591 21.6429 27.6487 23.0143 26.6279C24.3857 25.607 25.0714 24.3674 25.0714 22.9091V19.5682H21.2143V22.9091C21.2143 23.5852 20.9073 24.152 20.2934 24.6094C19.6795 25.0668 18.9188 25.2955 18.0112 25.2955C17.1038 25.2955 16.3393 25.0668 15.7179 24.6094C15.0964 24.152 14.7857 23.5852 14.7857 22.9091V19.5682H10.9286V22.9091C10.9286 24.3674 11.6168 25.607 12.9933 26.6279C14.3697 27.6487 16.0412 28.1591 18.0076 28.1591ZM25.7143 10.5C24.8571 10.5 24.1071 10.2614 23.4643 9.78409C22.8214 9.30682 22.5 8.74205 22.5 8.08977C22.5 7.4375 22.8214 6.88068 23.4643 6.41932C24.1071 5.95795 24.8679 5.72727 25.7464 5.72727C26.625 5.72727 27.375 5.95928 27.9964 6.42328C28.6179 6.88732 28.9286 7.45077 28.9286 8.11364C28.9286 8.75 28.6161 9.30682 27.9911 9.78409C27.3661 10.2614 26.6071 10.5 25.7143 10.5ZM12.8571 8.59091C11.2714 8.59091 9.91071 8.16932 8.775 7.32614C7.63929 6.48295 7.07143 5.46477 7.07143 4.27159C7.07143 3.07841 7.63929 2.06818 8.775 1.24091C9.91071 0.413636 11.2821 0 12.8893 0C14.4964 0 15.8571 0.415226 16.9714 1.24568C18.0857 2.07614 18.6429 3.09273 18.6429 4.29545C18.6429 5.47273 18.0836 6.48295 16.965 7.32614C15.8464 8.16932 14.4771 8.59091 12.8571 8.59091Z" fill="#635972"/>
</svg>
