<svg width="36" height="42" viewBox="0 0 36 42" fill="none" xmlns="http://www.w3.org/2000/svg">
<path d="M0 42L0 28.1591C0 25.6502 0.933333 23.5116 2.8 21.7434C4.66667 19.9751 6.9 19.0909 9.5 19.0909H12.5V2.86364C12.5 2.07614 12.7937 1.40199 13.3813 0.841193C13.9688 0.280398 14.675 0 15.5 0L20.5 0C21.325 0 22.0312 0.280398 22.6187 0.841193C23.2063 1.40199 23.5 2.07614 23.5 2.86364V19.0909H26.5C29.1283 19.0909 31.3687 19.9751 33.2212 21.7434C35.0737 23.5116 36 25.6502 36 28.1591V42H0ZM3 39.1364H8.25V32.9318C8.25 32.5261 8.4 32.1861 8.7 31.9116C9 31.6372 9.35833 31.5 9.775 31.5C10.1917 31.5 10.5417 31.6372 10.825 31.9116C11.1083 32.1861 11.25 32.5261 11.25 32.9318V39.1364H16.5V32.9318C16.5 32.5261 16.65 32.1861 16.95 31.9116C17.25 31.6372 17.6083 31.5 18.025 31.5C18.4417 31.5 18.7917 31.6372 19.075 31.9116C19.3583 32.1861 19.5 32.5261 19.5 32.9318V39.1364H24.75V32.9318C24.75 32.5261 24.9 32.1861 25.2 31.9116C25.5 31.6372 25.8583 31.5 26.275 31.5C26.6917 31.5 27.0417 31.6372 27.325 31.9116C27.6083 32.1861 27.75 32.5261 27.75 32.9318V39.1364H33V28.1591C33 26.4356 32.368 24.9706 31.1042 23.7642C29.8403 22.5578 28.3056 21.9545 26.5 21.9545H9.5C7.69443 21.9545 6.15972 22.5578 4.89585 23.7642C3.63195 24.9706 3 26.4356 3 28.1591V39.1364ZM20.5 19.0909V2.86364H15.5V19.0909H20.5Z" fill="#685C79"/>
</svg>
