<svg width="36" height="42" viewBox="0 0 36 42" fill="none" xmlns="http://www.w3.org/2000/svg">
<path d="M3.5 42C3.06667 42 2.70833 41.8347 2.425 41.5042C2.14167 41.1736 2 40.7556 2 40.25V37.3333H0V28.5833C0 28.0778 0.141667 27.6597 0.425 27.3292C0.708333 26.9986 1.06667 26.8333 1.5 26.8333H4V8.75C4 6.26111 4.78333 4.18056 6.35 2.50833C7.91667 0.836111 9.8 0 12 0C14.1 0 15.875 0.845833 17.325 2.5375C18.775 4.22917 19.5 6.3 19.5 8.75V33.25C19.5 34.7278 19.9333 35.9722 20.8 36.9833C21.6667 37.9944 22.7333 38.5 24 38.5C25.3667 38.5 26.5417 38.0042 27.525 37.0125C28.5083 36.0208 29 34.7667 29 33.25V15.1667H26.5C26.0667 15.1667 25.7083 15.0014 25.425 14.6708C25.1417 14.3403 25 13.9222 25 13.4167V4.66667H27V1.75C27 1.24444 27.1417 0.826389 27.425 0.495833C27.7083 0.165278 28.0667 0 28.5 0H32.5C32.9333 0 33.2917 0.165278 33.575 0.495833C33.8583 0.826389 34 1.24444 34 1.75V4.66667H36V13.4167C36 13.9222 35.8583 14.3403 35.575 14.6708C35.2917 15.0014 34.9333 15.1667 34.5 15.1667H32V33.25C32 35.7389 31.2167 37.8194 29.65 39.4917C28.0833 41.1639 26.2 42 24 42C21.9 42 20.125 41.1542 18.675 39.4625C17.225 37.7708 16.5 35.7 16.5 33.25V8.75C16.5 7.27222 16.0667 6.02778 15.2 5.01667C14.3333 4.00556 13.2667 3.5 12 3.5C10.6333 3.5 9.45833 3.99583 8.475 4.9875C7.49167 5.97917 7 7.23333 7 8.75V26.8333H9.5C9.93333 26.8333 10.2917 26.9986 10.575 27.3292C10.8583 27.6597 11 28.0778 11 28.5833V37.3333H9V40.25C9 40.7556 8.85833 41.1736 8.575 41.5042C8.29167 41.8347 7.93333 42 7.5 42H3.5Z" fill="#685C79"/>
</svg>
